#!OML:ASF E:\acrobat2\Project_11_07_03\Capture day 1\Session 1\Acrobat.ASF
:FULLY-SPECIFIED
:DEGREES
781
root 17.4658 8.26625 -9.43881 -327.443 -10.1896 1.20383
lowerback 39.7428 0.644024 0.900468
upperback 9.55556 1.20081 1.71849
thorax -8.64761 0.461754 0.888546
lowerneck -2.30841 -0.691698 2.82965
upperneck -30.4063 -1.98874 -3.71553
head -9.22333 -1.00312 -1.63394
rclavicle 1.27222e-014 1.13307e-014
rhumerus 57.3697 17.7288 -14.3875
rradius 26.8717
rwrist -7.82056
rhand -22.4914 -63.4501
rfingers 7.12502
rthumb 3.93427 -986.606
lclavicle 1.27222e-014 1.13307e-014
lhumerus 47.774 -9.52198 63.8689
lradius 25.3636
lwrist 8.41467
lhand -46.8495 -41.9905
lfingers 7.12502
lthumb -19.5626 -12.9547
rfemur -129.059 -28.2647 37.6324
rtibia 30.747
rfoot -214.245 2.37406
rtoes -18.964
lfemur -132.044 35.4408 -51.3055
ltibia 30.7381
lfoot -568.664 12.5309
ltoes 14.7603
782
root 17.4782 8.45206 -9.45815 -327.4 -10.3589 1.18863
lowerback 39.6672 0.789681 1.03338
upperback 9.56531 1.41576 1.66971
thorax -8.60991 0.559127 0.681703
lowerneck -2.48653 -0.678673 3.00264
upperneck -30.0974 -1.96619 -3.8023
head -9.0797 -1.00328 -1.69384
rclavicle 1.66979e-014 -2.40529e-014
rhumerus 57.6954 17.6598 -13.772
rradius 25.8907
rwrist -7.24516
rhand -20.6516 -62.8124
rfingers 7.12502
rthumb 5.7107 -987.285
lclavicle 1.66979e-014 -2.40529e-014
lhumerus 49.2321 -10.8438 61.4498
lradius 22.7838
lwrist 8.04831
lhand -46.4633 -40.5541
lfingers 7.12502
lthumb -19.1912 -11.481
rfemur -128.286 -28.5274 37.7164
rtibia 32.3032
rfoot -213.688 1.96337
rtoes -18.117
lfemur -131.123 35.7862 -51.2593
ltibia 32.1846
lfoot -567.778 13.0777
ltoes 16.2179
783
root 17.4894 8.64224 -9.47125 -327.425 -10.5051 1.17208
lowerback 39.6385 0.915395 1.1464
upperback 9.58369 1.60273 1.64559
thorax -8.5775 0.643366 0.522818
lowerneck -2.63964 -0.658747 3.14281
upperneck -29.8125 -1.93342 -3.87332
head -8.94922 -0.996191 -1.74305
rclavicle 2.46493e-014 -1.05356e-014
rhumerus 57.9569 17.5499 -13.3668
rradius 25.2423
rwrist -6.92277
rhand -18.5301 -61.9905
rfingers 7.12502
rthumb 7.75875 -988.172
lclavicle 2.46493e-014 -1.05356e-014
lhumerus 50.5174 -12.0666 58.9316
lradius 20.7426
lwrist 7.99174
lhand -45.8254 -38.5442
lfingers 7.12502
lthumb -18.5778 -9.41132
rfemur -127.382 -28.8354 37.7557
rtibia 33.9034
rfoot -213.051 1.67063
rtoes -17.6998
lfemur -130.136 36.1342 -51.2369
ltibia 33.6467
lfoot -567.003 13.3703
ltoes 17.3251
784
root 17.499 8.83523 -9.47855 -327.479 -10.6333 1.13941
lowerback 39.6304 1.03127 1.23177
upperback 9.60489 1.7713 1.65142
thorax -8.54955 0.718754 0.417611
lowerneck -2.76275 -0.631713 3.24796
upperneck -29.5638 -1.89486 -3.94621
head -8.83722 -0.982012 -1.78721
rclavicle 1.03368e-014 7.55382e-015
rhumerus 58.2077 17.4144 -13.0318
rradius 24.9438
rwrist -7.05642
rhand -16.1832 -61.0387
rfingers 7.12502
rthumb 10.0234 -989.22
lclavicle 1.03368e-014 7.55382e-015
lhumerus 51.6174 -13.3819 56.0204
lradius 19.4265
lwrist 8.50945
lhand -44.9816 -35.742
lfingers 7.12502
lthumb -17.7659 -6.53356
rfemur -126.376 -29.159 37.7413
rtibia 35.5387
rfoot -212.33 1.40539
rtoes -17.4643
lfemur -129.126 36.4945 -51.219
ltibia 35.1039
lfoot -566.318 13.4312
ltoes 18.0283
785
root 17.5066 9.02985 -9.4802 -327.549 -10.7485 1.0718
lowerback 39.6288 1.12878 1.27606
upperback 9.64169 1.90705 1.70167
thorax -8.50891 0.778477 0.394419
lowerneck -2.85486 -0.58652 3.24013
upperneck -29.3814 -1.8339 -3.99797
head -8.75279 -0.946476 -1.80623
rclavicle -3.02153e-014 -4.47266e-014
rhumerus 58.5232 17.215 -12.8812
rradius 24.9135
rwrist -7.51635
rhand -13.7359 -60.0197
rfingers 7.12502
rthumb 12.3837 -809.633
lclavicle -3.02153e-014 -4.47266e-014
lhumerus 52.5471 -14.788 52.6249
lradius 18.8646
lwrist 9.6467
lhand -43.8768 -32.0205
lfingers 7.12502
lthumb -16.7026 -2.71909
rfemur -125.278 -29.4732 37.6716
rtibia 37.2016
rfoot -211.517 1.13018
rtoes -17.3005
lfemur -128.118 36.8864 -51.1762
ltibia 36.5465
lfoot -565.665 13.3081
ltoes 18.44
786
root 17.5117 9.2246 -9.47761 -327.611 -10.8516 0.968105
lowerback 39.6164 1.22108 1.32503
upperback 9.67588 2.0385 1.75557
thorax -8.46767 0.836162 0.374592
lowerneck -2.88087 -0.545903 3.22565
upperneck -29.2639 -1.78168 -4.05251
head -8.70389 -0.913518 -1.82487
rclavicle -9.54166e-015 -4.37326e-015
rhumerus 58.7846 16.9542 -13.0324
rradius 25.0696
rwrist -8.20783
rhand -11.3872 -59.0089
rfingers 7.12502
rthumb 14.6474 -808.472
lclavicle -9.54166e-015 -4.37326e-015
lhumerus 53.4265 -16.3321 48.7754
lradius 18.9466
lwrist 11.3351
lhand -42.3534 -27.5216
lfingers 7.12502
lthumb -15.2356 1.89739
rfemur -124.109 -29.7681 37.526
rtibia 38.8352
rfoot -210.657 0.617088
rtoes -16.4422
lfemur -127.137 37.2983 -51.0955
ltibia 37.9709
lfoot -564.993 13.0305
ltoes 18.5897
787
root 17.5143 9.41852 -9.47117 -327.692 -10.9732 0.845594
lowerback 39.6174 1.31528 1.33495
upperback 9.7201 2.1571 1.81086
thorax -8.42103 0.887958 0.38172
lowerneck -2.86889 -0.49893 3.17125
upperneck -29.1877 -1.7237 -4.10844
head -8.67591 -0.872842 -1.8377
rclavicle -1.66979e-014 -4.51241e-014
rhumerus 59.0529 16.6758 -13.3744
rradius 25.3709
rwrist -9.12253
rhand -9.34801 -58.0555
rfingers 7.12502
rthumb 16.6114 -807.365
lclavicle -1.66979e-014 -4.51241e-014
lhumerus 54.3939 -17.3742 45.687
lradius 18.6845
lwrist 12.4009
lhand -40.2272 -23.087
lfingers 7.12502
lthumb -13.1868 6.47599
rfemur -122.868 -30.0223 37.2836
rtibia 40.4329
rfoot -209.738 -0.0206358
rtoes -15.172
lfemur -126.168 37.7612 -50.9905
ltibia 39.3788
lfoot -564.266 12.6388
ltoes 18.5703
788
root 17.5159 9.61102 -9.46006 -327.85 -11.1228 0.721815
lowerback 39.6849 1.40169 1.32406
upperback 9.78083 2.25599 1.8468
thorax -8.37718 0.930731 0.386442
lowerneck -2.80742 -0.448961 3.09671
upperneck -29.1434 -1.66459 -4.17186
head -8.66794 -0.828021 -1.84993
rclavicle -5.56597e-015 1.63003e-014
rhumerus 59.3101 16.4067 -13.8744
rradius 25.7713
rwrist -10.1631
rhand -7.71006 -57.1305
rfingers 7.12502
rthumb 18.1878 -806.3
lclavicle -5.56597e-015 1.63003e-014
lhumerus 55.1987 -18.2535 42.7529
lradius 18.845
lwrist 13.574
lhand -37.4 -18.6695
lfingers 7.12502
lthumb -10.4605 11.0503
rfemur -121.527 -30.2629 36.9334
rtibia 42.0059
rfoot -208.733 -0.657158
rtoes -13.8286
lfemur -125.158 38.2925 -50.8539
ltibia 40.7689
lfoot -563.495 12.1041
ltoes 18.2227
789
root 17.5161 9.80015 -9.44695 -328.044 -11.2784 0.606367
lowerback 39.769 1.47732 1.30503
upperback 9.85152 2.33593 1.86051
thorax -8.32671 0.965335 0.37923
lowerneck -2.65739 -0.395797 3.01604
upperneck -29.1438 -1.60406 -4.24973
head -8.6916 -0.779004 -1.86661
rclavicle -3.89618e-014 1.78906e-015
rhumerus 59.5413 16.1762 -14.4148
rradius 26.2555
rwrist -11.3043
rhand -6.40233 -56.1549
rfingers 7.12502
rthumb 19.4456 -805.203
lclavicle -3.89618e-014 1.78906e-015
lhumerus 55.8572 -18.9854 40.0166
lradius 19.3297
lwrist 14.7728
lhand -33.9323 -14.5657
lfingers 7.12502
lthumb -7.11419 15.2947
rfemur -120.179 -30.4692 36.5296
rtibia 43.5243
rfoot -207.649 -1.18255
rtoes -12.6525
lfemur -124.146 38.8352 -50.6845
ltibia 42.1177
lfoot -562.663 11.4384
ltoes 17.5883
790
root 17.5155 9.98529 -9.43105 -328.315 -11.4504 0.50496
lowerback 39.9167 1.5518 1.27501
upperback 9.92874 2.40784 1.85102
thorax -8.2883 0.996329 0.355497
lowerneck -2.41526 -0.339959 2.94045
upperneck -29.1691 -1.54382 -4.35136
head -8.7407 -0.72671 -1.89272
rclavicle -2.14687e-014 2.38542e-015
rhumerus 59.7252 16.0151 -14.8705
rradius 26.8371
rwrist -12.4964
rhand -5.22599 -55.0575
rfingers 7.12502
rthumb 20.5763 -803.987
lclavicle -2.14687e-014 2.38542e-015
lhumerus 56.4085 -19.6389 37.4275
lradius 20.0433
lwrist 15.9451
lhand -29.9722 -10.9044
lfingers 7.12502
lthumb -3.29064 19.0499
rfemur -118.806 -30.6532 36.0662
rtibia 44.9765
rfoot -206.486 -1.54735
rtoes -11.707
lfemur -123.106 39.4212 -50.4707
ltibia 43.4195
lfoot -561.714 10.7033
ltoes 17.0453
791
root 17.5138 10.1654 -9.41199 -328.674 -11.6539 0.428327
lowerback 40.1273 1.63097 1.2341
upperback 10.0192 2.47623 1.80209
thorax -8.25306 1.02617 0.296147
lowerneck -2.11492 -0.287063 2.89611
upperneck -29.1836 -1.48999 -4.47598
head -8.797 -0.677439 -1.9319
rclavicle -7.15625e-015 -7.15625e-015
rhumerus 59.8145 15.9015 -15.358
rradius 27.4836
rwrist -13.4876
rhand -3.9332 -53.8188
rfingers 7.12502
rthumb 21.8181 -802.609
lclavicle -7.15625e-015 -7.15625e-015
lhumerus 56.9363 -20.2805 34.8609
lradius 20.8905
lwrist 17.0678
lhand -25.7012 -7.7446
lfingers 7.12502
lthumb 0.834306 22.2335
rfemur -117.414 -30.8101 35.5384
rtibia 46.3538
rfoot -205.247 -1.71653
rtoes -11.0351
lfemur -122.047 40.0665 -50.2256
ltibia 44.6603
lfoot -560.621 9.89381
ltoes 16.6748
792
root 17.5111 10.3401 -9.38918 -329.144 -11.9011 0.383038
lowerback 40.4133 1.7265 1.17623
upperback 10.1333 2.55148 1.7098
thorax -8.21275 1.05968 0.195898
lowerneck -1.76667 -0.242372 2.90805
upperneck -29.1814 -1.45218 -4.63829
head -8.85716 -0.637283 -1.99293
rclavicle -1.43125e-014 -7.95139e-015
rhumerus 59.76 15.8125 -16.0127
rradius 28.1654
rwrist -14.0584
rhand -2.38386 -52.4964
rfingers 7.12502
rthumb 23.3052 -801.106
lclavicle -1.43125e-014 -7.95139e-015
lhumerus 57.5037 -20.9299 32.2656
lradius 21.8049
lwrist 18.0864
lhand -21.3057 -5.11209
lfingers 7.12502
lthumb 5.07919 24.807
rfemur -115.989 -30.9424 34.9313
rtibia 47.6501
rfoot -203.936 -1.70852
rtoes -10.5176
lfemur -120.958 40.7945 -49.9416
ltibia 45.8186
lfoot -559.363 9.0209
ltoes 16.6686
